# xmcd
#
# Track frame offsets:
# 150
# 7368
# 21971
# 37417
# 51767
# 65596
# 77665
# 91164
# 105467
# 129363
# 144442
# 158144
# 177755
#
# Disc length: 2550 seconds
#
#
# Revision: 12
# Processed by: cddbd v1.5.2PL0 Copyright (c) Steve Scherf et al.
# Submitted via: FreeRIP 2.942 
#
DISCID=aa09f40d
DTITLE=í¹éë×ù - í¹éë×ù 5th - All you need is Love
DYEAR=2004
DGENRE=Rock
TTITLE0=í¹éë×ù 5th - ¢½1. LUV PILL
TTITLE1=í¹éë×ù 5th - ¢½2. ÇÏÇÏÇÏ½ö
TTITLE2=í¹éë×ù 5th - ¢½3. »ç¶ûÀÇ º´¿øÀ¸·Î ³î·¯ ¿À¼¼¿ä
TTITLE3=í¹éë×ù 5th - ¢½4. I saw him
TTITLE4=í¹éë×ù 5th - ¢½5. °ÅÁö
TTITLE5=í¹éë×ù 5th - ¢½6. ÎÇå¯
TTITLE6=í¹éë×ù 5th - ¢½7. ¿ì¸®¿¡°Ô ³»ÀÏÀº ¾ø´Ù
TTITLE7=í¹éë×ù 5th - ¢½8. äÂÙÓ
TTITLE8=í¹éë×ù 5th - ¢½9. ½Ç¸®ÄÜ¹ë¸®
TTITLE9=í¹éë×ù 5th - ¢½10. ÆÄÆ®³Ê
TTITLE10=í¹éë×ù 5th - ¢½11. 17171771
TTITLE11=í¹éë×ù 5th - ¢½12. Social Life
TTITLE12=í¹éë×ù 5th - ¢½13. TRUTH
EXTD=
EXTT0=
EXTT1=
EXTT2=
EXTT3=
EXTT4=
EXTT5=
EXTT6=
EXTT7=
EXTT8=
EXTT9=
EXTT10=
EXTT11=
EXTT12=
PLAYORDER=
